<svg width="21" height="21" viewBox="0 0 21 21" fill="none" xmlns="http://www.w3.org/2000/svg">
<rect x="0.5" y="0.5" width="20" height="20" rx="2" fill="#02B0ED"/>
<path fill-rule="evenodd" clip-rule="evenodd" d="M16.8134 6.79314C16.4229 6.40261 15.7897 6.40261 15.3992 6.79314L9.74243 12.4499L6.20711 8.91457C5.81658 8.52404 5.18342 8.52404 4.79289 8.91457C4.40237 9.30509 4.40237 9.93826 4.79289 10.3288L9.02342 14.5593C9.02731 14.5633 9.03125 14.5673 9.03523 14.5713C9.14281 14.6789 9.26882 14.7568 9.40309 14.8052C9.75627 14.9324 10.1667 14.8544 10.4497 14.5714C10.4555 14.5656 10.4613 14.5598 10.4669 14.5539L16.8134 8.20735C17.2039 7.81683 17.2039 7.18366 16.8134 6.79314Z" fill="white"/>
</svg>
