<svg width="24" height="25" viewBox="0 0 24 25" fill="none" xmlns="http://www.w3.org/2000/svg">
<path d="M10 5.5H4" stroke="#02B0ED" stroke-width="1.5" stroke-linecap="round"/>
<path d="M14 5.5H20" stroke="#02B0ED" stroke-width="1.5" stroke-linecap="round"/>
<path d="M16 12.5H4" stroke="#02B0ED" stroke-width="1.5" stroke-linecap="round"/>
<path d="M8 19.5H20" stroke="#02B0ED" stroke-width="1.5" stroke-linecap="round"/>
<path d="M8 19.5C8 18.3954 7.10457 17.5 6 17.5C4.89543 17.5 4 18.3954 4 19.5C4 20.6046 4.89543 21.5 6 21.5C7.10457 21.5 8 20.6046 8 19.5Z" stroke="#02B0ED" stroke-width="1.5" stroke-linecap="round"/>
<path d="M20 12.5C20 11.3954 19.1046 10.5 18 10.5C16.8954 10.5 16 11.3954 16 12.5C16 13.6046 16.8954 14.5 18 14.5C19.1046 14.5 20 13.6046 20 12.5Z" stroke="#02B0ED" stroke-width="1.5" stroke-linecap="round"/>
<path d="M14 5.5C14 4.39543 13.1046 3.5 12 3.5C10.8954 3.5 10 4.39543 10 5.5C10 6.60457 10.8954 7.5 12 7.5C13.1046 7.5 14 6.60457 14 5.5Z" stroke="#02B0ED" stroke-width="1.5" stroke-linecap="round"/>
</svg>
