<svg width="25" height="24" viewBox="0 0 25 24" fill="none" xmlns="http://www.w3.org/2000/svg">
<path d="M12.4995 21H12.4485C12.2995 20.9888 12.1578 20.9311 12.0435 20.835C12.0122 20.8084 11.9834 20.7789 11.9575 20.747L2.66748 9.673C2.59504 9.59022 2.54389 9.49102 2.51848 9.384C2.51848 9.371 2.51248 9.358 2.50948 9.345C2.48115 9.17748 2.51685 9.00543 2.60948 8.863L2.62848 8.835L6.25848 3.7C6.27148 3.68 6.28448 3.662 6.29948 3.646C6.40566 3.51982 6.55299 3.43518 6.71548 3.407C6.74329 3.40276 6.77135 3.40042 6.79948 3.4L12.4495 3H12.4995H12.5485L18.1995 3.4C18.2307 3.40177 18.2618 3.40578 18.2925 3.412C18.4708 3.44519 18.6292 3.54629 18.7345 3.694L22.3715 8.838C22.379 8.84797 22.386 8.85831 22.3925 8.869C22.4757 8.99649 22.5134 9.14838 22.4995 9.3C22.4953 9.33886 22.4879 9.37732 22.4775 9.415C22.4501 9.51087 22.4016 9.59938 22.3355 9.674L13.0425 20.746C13.027 20.7654 13.0103 20.7838 12.9925 20.801C12.9341 20.8577 12.8665 20.9041 12.7925 20.938C12.7318 20.9654 12.6675 20.9839 12.6015 20.993C12.5677 20.9977 12.5336 21 12.4995 21ZM8.44548 9.911L12.4995 18.663L16.5535 9.911H8.44548ZM18.0855 9.911L15.3235 15.874L20.3235 9.911H18.0855ZM4.67248 9.911L9.67248 15.874L6.91348 9.911H4.67248ZM18.6675 5.994L18.4075 8.545H20.4695L18.6675 5.994ZM12.4995 4.869L9.37148 8.545H15.6275L12.4995 4.869ZM6.33148 5.994L4.52948 8.545H6.59148L6.33148 5.994ZM13.9765 4.471L17.0505 8.084L17.3995 4.711L13.9765 4.471ZM11.0205 4.471L7.59948 4.711L7.94448 8.084L11.0205 4.471Z" fill="#00A0D9"/>
</svg>
