<svg width="20" height="20" viewBox="0 0 20 20" fill="none" xmlns="http://www.w3.org/2000/svg">
<g id="Frame 427320471">
<g id="Union">
<path fill-rule="evenodd" clip-rule="evenodd" d="M2 3.3023C2 2.8592 2.3592 2.5 2.8023 2.5H8.19764C8.64074 2.5 8.99994 2.8592 8.99994 3.3023V8.69764C8.99994 9.14074 8.64074 9.49994 8.19764 9.49994H2.8023C2.3592 9.49994 2 9.14074 2 8.69764V3.3023ZM3.2767 8.22324V3.7767H7.72324V8.22324H3.2767Z" fill="white"/>
<path fill-rule="evenodd" clip-rule="evenodd" d="M2 12.3024C2 11.8593 2.3592 11.5001 2.8023 11.5001H8.19764C8.64074 11.5001 8.99994 11.8593 8.99994 12.3024V17.6977C8.99994 18.1408 8.64074 18.5 8.19764 18.5H2.8023C2.3592 18.5 2 18.1408 2 17.6977V12.3024ZM3.2767 17.2233V12.7768H7.72324V17.2233H3.2767Z" fill="white"/>
<path fill-rule="evenodd" clip-rule="evenodd" d="M11.8855 2.5C11.4424 2.5 11.0832 2.8592 11.0832 3.3023V8.69764C11.0832 9.14074 11.4424 9.49994 11.8855 9.49994H17.2808C17.7239 9.49994 18.0831 9.14074 18.0831 8.69764V3.3023C18.0831 2.8592 17.7239 2.5 17.2808 2.5H11.8855ZM12.3599 3.7767V8.22324H16.8064V3.7767H12.3599Z" fill="white"/>
<path fill-rule="evenodd" clip-rule="evenodd" d="M11.0832 12.3024C11.0832 11.8593 11.4424 11.5001 11.8855 11.5001H17.2808C17.7239 11.5001 18.0831 11.8593 18.0831 12.3024V17.6977C18.0831 18.1408 17.7239 18.5 17.2808 18.5H11.8855C11.4424 18.5 11.0832 18.1408 11.0832 17.6977V12.3024ZM12.3599 17.2233V12.7768H16.8064V17.2233H12.3599Z" fill="white"/>
</g>
</g>
</svg>
