<svg width="20" height="20" viewBox="0 0 20 20" fill="none" xmlns="http://www.w3.org/2000/svg">
<g id="Frame 427320470">
<g id="Union">
<path d="M2.84211 2.5C2.37702 2.5 2 2.87702 2 3.34211C2 3.80719 2.37702 4.18421 2.84211 4.18421C3.30719 4.18421 3.68421 3.80719 3.68421 3.34211C3.68421 2.87702 3.30719 2.5 2.84211 2.5Z" fill="white"/>
<path d="M6.21053 2.5C5.74544 2.5 5.36842 2.87702 5.36842 3.34211C5.36842 3.80719 5.74544 4.18421 6.21053 4.18421H17.1579C17.623 4.18421 18 3.80719 18 3.34211C18 2.87702 17.623 2.5 17.1579 2.5H6.21053Z" fill="white"/>
<path d="M2 10.0789C2 9.61387 2.37702 9.23684 2.84211 9.23684C3.30719 9.23684 3.68421 9.61387 3.68421 10.0789C3.68421 10.544 3.30719 10.9211 2.84211 10.9211C2.37702 10.9211 2 10.544 2 10.0789Z" fill="white"/>
<path d="M6.21053 9.23684C5.74544 9.23684 5.36842 9.61387 5.36842 10.0789C5.36842 10.544 5.74544 10.9211 6.21053 10.9211H17.1579C17.623 10.9211 18 10.544 18 10.0789C18 9.61387 17.623 9.23684 17.1579 9.23684H6.21053Z" fill="white"/>
<path d="M2 16.8158C2 16.3507 2.37702 15.9737 2.84211 15.9737C3.30719 15.9737 3.68421 16.3507 3.68421 16.8158C3.68421 17.2809 3.30719 17.6579 2.84211 17.6579C2.37702 17.6579 2 17.2809 2 16.8158Z" fill="white"/>
<path d="M6.21053 15.9737C5.74544 15.9737 5.36842 16.3507 5.36842 16.8158C5.36842 17.2809 5.74544 17.6579 6.21053 17.6579H17.1579C17.623 17.6579 18 17.2809 18 16.8158C18 16.3507 17.623 15.9737 17.1579 15.9737H6.21053Z" fill="white"/>
</g>
</g>
</svg>
