<svg width="19" height="18" viewBox="0 0 19 18" fill="none" xmlns="http://www.w3.org/2000/svg">
<rect x="0.5" width="18" height="18" rx="9" fill="#02B0ED"/>
<path fill-rule="evenodd" clip-rule="evenodd" d="M14.3078 5.23363C14.0547 4.92212 13.6445 4.92212 13.3914 5.23363L8.81149 10.8715L5.60616 6.92576C5.35311 6.61425 4.94284 6.61425 4.68979 6.92576C4.43674 7.23726 4.43674 7.74231 4.68979 8.05382L8.31067 12.5111C8.32342 12.53 8.33697 12.5483 8.35134 12.566C8.47706 12.7208 8.64158 12.7987 8.80635 12.7996C8.97455 12.8019 9.14333 12.724 9.27166 12.5661C9.28615 12.5482 9.29981 12.5298 9.31264 12.5107L14.3078 6.36169C14.5608 6.05019 14.5608 5.54513 14.3078 5.23363Z" fill="white"/>
</svg>
