<svg width="20" height="20" viewBox="0 0 20 20" fill="none" xmlns="http://www.w3.org/2000/svg">
<rect width="20" height="20" rx="2" fill="#02B0ED"/>
<path fill-rule="evenodd" clip-rule="evenodd" d="M16.3134 6.29314C15.9229 5.90261 15.2897 5.90261 14.8992 6.29314L9.24243 11.9499L5.70711 8.41457C5.31658 8.02404 4.68342 8.02404 4.29289 8.41457C3.90237 8.80509 3.90237 9.43826 4.29289 9.82878L8.52342 14.0593C8.52731 14.0633 8.53125 14.0673 8.53523 14.0713C8.64281 14.1789 8.76882 14.2568 8.90309 14.3052C9.25627 14.4324 9.66673 14.3544 9.94975 14.0714C9.95555 14.0656 9.96127 14.0598 9.9669 14.0539L16.3134 7.70735C16.7039 7.31683 16.7039 6.68366 16.3134 6.29314Z" fill="white"/>
</svg>
