<svg width="953" height="282" viewBox="0 0 953 282" fill="none" xmlns="http://www.w3.org/2000/svg">
<path d="M902.81 205.27C908.903 206.09 912.273 205.709 912.917 204.127C913.562 202.604 913.562 198.444 912.917 191.647C912.331 185.026 911.716 181.393 911.071 180.748C910.31 179.987 908.112 179.957 904.48 180.66C900.847 181.363 898.591 182.184 897.712 183.121C896.657 184.352 895.485 187.428 894.196 192.35C892.966 197.272 892.556 200.436 892.966 201.842C893.435 203.365 896.716 204.508 902.81 205.27ZM907.028 148.141C922.497 149.195 932.019 151.627 935.593 155.436C939.284 159.42 943.357 177.613 947.81 210.016C952.263 242.301 953.259 259.908 950.798 262.838C948.337 265.768 942.507 267.32 933.308 267.496C929.851 267.555 926.628 267.379 923.64 266.969C920.71 266.617 919.011 266.207 918.542 265.738C917.37 264.567 916.052 259 914.587 249.039L914.235 246.227L913.796 243.502C913.503 241.51 913.269 239.899 913.093 238.668C912.507 235.445 911.98 233.6 911.511 233.131C910.632 232.194 907.644 231.695 902.546 231.637C897.683 231.637 894.548 231.959 893.142 232.604C892.439 232.897 891.413 234.684 890.065 237.965C889.597 239.195 888.982 240.836 888.22 242.887L887.253 245.612L886.198 248.424C882.624 258.209 879.929 263.072 878.112 263.014C877.116 262.955 876.12 262.897 875.124 262.838C873.894 262.721 872.663 262.604 871.433 262.487C868.386 262.194 865.661 261.783 863.259 261.256C856.579 259.908 852.741 258.004 851.745 255.543C850.339 252.203 853.21 234.274 860.358 201.754C867.683 168.649 873.19 151.334 876.882 149.811C882.273 147.643 892.321 147.086 907.028 148.141Z" fill="white"/>
<path d="M806.046 191.559C798.487 203.57 795.089 210.543 795.85 212.477C796.26 213.531 798.135 216.021 801.475 219.947C802.53 221.236 804.141 223.141 806.309 225.66L808.946 228.736L811.671 231.9C821.046 242.916 825.469 249.42 824.942 251.412C824.415 253.639 820.342 257.066 812.725 261.695C804.874 266.5 799.6 268.492 796.905 267.672C795.616 267.32 793.448 265.182 790.401 261.256C789.229 259.732 787.823 257.799 786.182 255.455L783.897 252.291L781.7 249.127C777.95 243.795 775.225 240.133 773.526 238.141C770.948 235.152 769.366 234.156 768.78 235.152C767.725 236.852 766.993 241.627 766.583 249.479L766.319 253.873C766.26 255.631 766.202 256.979 766.143 257.916C765.909 260.67 765.645 262.457 765.352 263.277C765.059 264.156 763.477 264.713 760.606 264.947C757.911 265.182 754.747 265.064 751.114 264.596C742.149 263.541 736.524 261.637 734.239 258.883C732.13 256.305 732.569 237.965 735.557 203.863C738.487 170.582 740.655 152.799 742.061 150.514C743.35 148.404 748.096 147.613 756.3 148.141C764.327 148.668 768.809 149.811 769.747 151.568C769.981 151.979 770.04 153.766 769.923 156.93C769.923 157.867 769.864 159.361 769.747 161.412L769.571 163.961L769.483 166.422C769.073 175.035 769.512 178.873 770.801 177.936C771.505 177.467 773.028 175.709 775.372 172.662C775.782 172.135 776.309 171.432 776.954 170.553L778.712 168.268C780.176 166.334 781.436 164.693 782.491 163.346C789.229 154.908 793.8 150.865 796.202 151.217C798.428 151.51 802.764 154.234 809.21 159.391C815.889 164.84 818.995 168.648 818.526 170.816C818.35 171.812 816.944 174.42 814.307 178.639C813.487 179.928 812.169 181.979 810.352 184.791L808.243 188.131L806.046 191.559Z" fill="white"/>
<path d="M614.09 214.938C617.957 180.778 620.506 162.79 621.736 160.973C622.967 159.157 627.303 158.278 634.744 158.337C642.127 158.395 646.199 159.157 646.961 160.622C647.254 161.208 647.4 163.112 647.4 166.335C647.459 167.565 647.459 169.177 647.4 171.169V173.805V176.442C647.283 185.934 647.576 191.061 648.279 191.823C649.334 192.819 653.289 193.259 660.144 193.141C667.059 193.024 670.926 192.468 671.746 191.471C672.156 191.003 672.684 189.245 673.328 186.198C673.68 184.323 674.266 181.1 675.086 176.53C676.727 167.214 677.811 162.263 678.338 161.677C679.334 160.563 683.553 160.212 690.994 160.622C698.553 161.032 702.859 162.057 703.914 163.698C705.262 165.807 706.17 184.704 706.639 220.388C707.166 256.247 706.609 274.821 704.969 276.11C703.328 277.399 698.934 278.073 691.785 278.132C684.871 278.19 680.857 277.751 679.744 276.813C679.1 276.286 678.045 268.024 676.58 252.028C675.877 244.235 675.32 238.698 674.91 235.417C674.266 230.261 673.68 227.477 673.152 227.067C671.805 225.895 667.674 225.251 660.76 225.134C653.67 225.075 649.627 225.807 648.631 227.331C648.162 228.093 647.664 231.022 647.137 236.12C646.961 238.112 646.727 240.661 646.434 243.766L646.082 247.897L645.73 252.204C644.441 267.38 643.445 275.231 642.742 275.759C642.215 276.227 640.369 276.55 637.205 276.725C633.865 276.901 630.35 276.872 626.658 276.638C616.756 275.993 611.189 274.235 609.959 271.364C608.728 268.434 610.105 249.626 614.09 214.938Z" fill="white"/>
<path d="M549.752 176.881C553.034 171.784 555.172 168.913 556.168 168.268C558.043 167.155 562.057 166.393 568.209 165.983C574.655 165.514 578.786 165.895 580.602 167.125C582.887 168.707 584.293 185.993 584.821 218.981C585.407 251.911 584.762 268.961 582.887 270.133C581.188 271.305 577.057 271.891 570.495 271.891C563.932 271.891 560.065 271.305 558.893 270.133C558.424 269.664 557.897 267.555 557.311 263.805C557.077 262.457 556.813 260.612 556.52 258.268L556.081 255.192L555.641 252.028C554.118 241.129 552.624 235.797 551.159 236.032C549.694 236.207 544.801 241.481 536.481 251.852L534.108 254.84L531.823 257.653C530.124 259.821 528.717 261.549 527.604 262.838C524.792 266.178 523.034 267.965 522.331 268.2C521.452 268.493 519.254 268.463 515.739 268.112C512.047 267.76 508.268 267.174 504.401 266.354C493.913 264.069 488.141 261.373 487.086 258.268C485.856 254.459 487.086 236.325 490.778 203.864C494.528 171.168 497.516 154.264 499.743 153.151C501.969 152.038 507.653 152.213 516.793 153.678C525.817 155.143 531.266 156.637 533.141 158.161C534.196 158.981 534.167 162.496 533.053 168.707C532.292 172.75 530.768 179.284 528.483 188.307L527.252 193.493C526.725 195.426 526.286 197.096 525.934 198.502C525.055 202.077 524.411 204.977 524 207.204C522.829 212.887 522.77 215.729 523.825 215.729C525.055 215.729 530.329 208.17 539.645 193.053L542.282 188.746L544.918 184.528C546.852 181.422 548.463 178.873 549.752 176.881Z" fill="white"/>
<path d="M460.279 189.801C460.455 199.645 459.693 205.27 457.994 206.676C457.525 207.027 455.709 207.291 452.545 207.467C451.373 207.526 449.791 207.584 447.799 207.643L445.162 207.731L442.438 207.818C433.062 208.111 428.258 208.844 428.023 210.016C427.906 210.484 427.936 214.264 428.111 221.354C428.17 222.35 428.229 224.049 428.287 226.451V229.264L428.375 232.076C428.492 236.764 428.58 240.836 428.639 244.293C429.049 266.324 428.727 278.131 427.672 279.713C427.027 280.651 424.771 281.295 420.904 281.647C417.33 282.057 413.229 282.115 408.6 281.822C397.232 281.178 391.197 279.449 390.494 276.637C390.201 275.348 390.348 270.631 390.934 262.486C391.168 259.498 391.49 255.484 391.9 250.445L392.428 243.766L392.955 236.998C394.947 213.326 395.328 201.227 394.098 200.699C393.395 200.406 391.432 200.026 388.209 199.557C387.154 199.44 385.572 199.264 383.463 199.029L380.914 198.678L378.365 198.414C369.283 197.242 364.391 196.1 363.688 194.986C362.516 193.229 362.223 187.838 362.809 178.815C363.453 169.381 364.83 164.078 366.939 162.906C369.869 161.266 385.396 162.115 413.521 165.455C441.295 168.795 456.002 171.285 457.643 172.926C459.166 174.449 460.045 180.074 460.279 189.801Z" fill="white"/>
<path d="M291.712 209.225C298.451 209.284 302.611 208.756 304.193 207.643C305.541 206.647 306.332 204.157 306.566 200.172C306.8 196.422 306.537 193.668 305.775 191.91C305.189 190.446 302.23 189.45 296.898 188.922C291.8 188.453 288.519 188.629 287.054 189.45C285.589 190.27 283.89 192.907 281.957 197.36C279.964 201.93 279.349 205.035 280.111 206.676C280.814 208.317 284.681 209.166 291.712 209.225ZM247.591 217.047C249.349 183.532 251.839 165.221 255.062 162.116C256.761 160.534 261.712 159.889 269.916 160.182C277.474 160.416 286.175 161.354 296.019 162.994C305.98 164.635 314.476 166.569 321.507 168.795C329.3 171.256 333.666 173.6 334.603 175.826C336.361 180.045 336.507 189.244 335.042 203.424C333.519 218.248 331 227.125 327.484 230.055C326.371 230.992 323.5 231.871 318.871 232.692C317.054 232.985 314.769 233.307 312.015 233.659L308.236 234.186L304.457 234.625C291.214 236.325 284.154 237.965 283.275 239.547C282.748 240.485 282.22 243.063 281.693 247.282C281.517 248.805 281.312 250.826 281.078 253.346L280.814 256.598L280.462 259.938C279.408 271.598 278.236 277.809 276.947 278.571C276.009 279.157 274.134 279.537 271.322 279.713C268.392 279.948 265.375 279.918 262.269 279.625C254.007 278.805 249.173 276.608 247.767 273.034C245.951 268.463 245.892 249.801 247.591 217.047Z" fill="white"/>
<path d="M170.505 205.27C176.599 206.09 179.968 205.709 180.612 204.127C181.257 202.604 181.257 198.444 180.612 191.647C180.026 185.026 179.411 181.393 178.767 180.748C178.005 179.987 175.808 179.957 172.175 180.66C168.542 181.363 166.286 182.184 165.407 183.121C164.353 184.352 163.181 187.428 161.892 192.35C160.661 197.272 160.251 200.436 160.661 201.842C161.13 203.365 164.411 204.508 170.505 205.27ZM174.724 148.141C190.192 149.195 199.714 151.627 203.288 155.436C206.98 159.42 211.052 177.613 215.505 210.016C219.958 242.301 220.954 259.908 218.493 262.838C216.032 265.768 210.202 267.32 201.003 267.496C197.546 267.555 194.323 267.379 191.335 266.969C188.405 266.617 186.706 266.207 186.237 265.738C185.065 264.567 183.747 259 182.282 249.039L181.931 246.227L181.491 243.502C181.198 241.51 180.964 239.899 180.788 238.668C180.202 235.445 179.675 233.6 179.206 233.131C178.327 232.194 175.339 231.695 170.241 231.637C165.378 231.637 162.243 231.959 160.837 232.604C160.134 232.897 159.108 234.684 157.761 237.965C157.292 239.195 156.677 240.836 155.915 242.887L154.948 245.612L153.894 248.424C150.319 258.209 147.624 263.072 145.808 263.014C144.812 262.955 143.815 262.897 142.819 262.838C141.589 262.721 140.358 262.604 139.128 262.487C136.081 262.194 133.357 261.783 130.954 261.256C124.274 259.908 120.437 258.004 119.44 255.543C118.034 252.203 120.905 234.274 128.054 201.754C135.378 168.649 140.886 151.334 144.577 149.811C149.968 147.643 160.017 147.086 174.724 148.141Z" fill="white"/>
<path d="M73.7409 191.559C66.1823 203.57 62.7839 210.543 63.5456 212.477C63.9558 213.531 65.8307 216.021 69.1706 219.947C70.2253 221.236 71.8366 223.141 74.0046 225.66L76.6413 228.736L79.3659 231.9C88.7409 242.916 93.1647 249.42 92.6374 251.412C92.11 253.639 88.0378 257.066 80.4206 261.695C72.569 266.5 67.2956 268.492 64.6003 267.672C63.3112 267.32 61.1433 265.182 58.0964 261.256C56.9245 259.732 55.5183 257.799 53.8776 255.455L51.5925 252.291L49.3952 249.127C45.6452 243.795 42.9206 240.133 41.2214 238.141C38.6433 235.152 37.0612 234.156 36.4753 235.152C35.4206 236.852 34.6882 241.627 34.278 249.479L34.0143 253.873C33.9558 255.631 33.8972 256.979 33.8386 257.916C33.6042 260.67 33.3405 262.457 33.0476 263.277C32.7546 264.156 31.1725 264.713 28.3015 264.947C25.6061 265.182 22.4421 265.064 18.8093 264.596C9.84442 263.541 4.21942 261.637 1.93427 258.883C-0.175108 256.305 0.264345 237.965 3.25263 203.863C6.18231 170.582 8.35028 152.799 9.75653 150.514C11.0456 148.404 15.7917 147.613 23.9948 148.141C32.0222 148.668 36.5046 149.811 37.4421 151.568C37.6765 151.979 37.7351 153.766 37.6179 156.93C37.6179 157.867 37.5593 159.361 37.4421 161.412L37.2663 163.961L37.1784 166.422C36.7683 175.035 37.2077 178.873 38.4968 177.936C39.1999 177.467 40.7233 175.709 43.0671 172.662C43.4772 172.135 44.0046 171.432 44.6491 170.553L46.4069 168.268C47.8718 166.334 49.1315 164.693 50.1862 163.346C56.9245 154.908 61.4948 150.865 63.8972 151.217C66.1237 151.51 70.4597 154.234 76.905 159.391C83.5847 164.84 86.6901 168.648 86.2214 170.816C86.0456 171.812 84.6393 174.42 82.0026 178.639C81.1823 179.928 79.864 181.979 78.0475 184.791L75.9382 188.131L73.7409 191.559Z" fill="white"/>
<path d="M773.206 60.4876C777.125 57.9355 779.244 55.9303 779.563 54.472C779.928 52.6035 779.632 48.2969 778.675 41.5521C777.627 34.306 776.419 30.5007 775.052 30.1361C773.092 29.5892 770.221 30.7741 766.438 33.6908C762.656 36.6074 760.628 39.1139 760.355 41.2103C760.081 43.5345 760.514 47.5677 761.653 53.3099C762.838 59.3711 764.023 62.6979 765.208 63.2904C766.575 63.974 769.241 63.0397 773.206 60.4876ZM777.171 1.35677C784.645 2.13151 789.612 3.36198 792.073 5.04818C794.58 6.77995 798.089 13.9805 802.601 26.6497C807.021 38.9544 809.186 47.0664 809.095 50.9857C809.004 54.7682 806.041 62.5156 800.208 74.2279C794.056 86.5781 789.384 93.0951 786.194 93.7786C782.457 94.599 774.869 93.5964 763.431 90.7708C751.673 87.8086 744.837 84.9831 742.923 82.2943C740.918 79.4232 738.821 71.4707 736.634 58.4368C734.492 45.3118 733.922 37.0404 734.925 33.6224C736.019 29.9766 740.097 23.8014 747.161 15.097C754.271 6.25586 759.056 1.63021 761.517 1.22005C765.071 0.582031 770.289 0.627604 777.171 1.35677Z" fill="white"/>
<path d="M703.341 14.0726C708.582 14.1637 711.818 14.8017 713.048 15.9866C714.461 17.3538 714.484 31.0941 713.117 57.2073C711.75 83.5029 710.109 97.5622 708.195 99.3851C706.326 101.208 702.316 102.256 696.164 102.53C690.604 102.803 686.958 102.507 685.226 101.641C684.315 101.185 681.261 96.6507 676.066 88.0374L674.562 85.5765L673.058 83.1156C671.964 81.2926 671.03 79.7887 670.255 78.6038C668.341 75.5505 666.997 73.6592 666.222 72.93C664.992 71.6995 663.328 75.8467 661.232 85.3714L660.548 88.1741L659.933 90.9769C659.477 93.1188 659.09 94.8278 658.771 96.1038C657.86 99.613 657.062 101.595 656.379 102.051C654.738 103.19 651.411 103.487 646.398 102.94C641.294 102.393 638.24 101.345 637.238 99.7952C636.099 98.1546 636.418 84.0954 638.195 57.6175C639.972 30.9573 641.681 16.6019 643.322 14.5511C644.598 12.956 648.221 11.68 654.191 10.723C659.888 9.76594 663.465 9.65201 664.923 10.3812C665.698 10.7458 667.27 13.3434 669.64 18.1741C670.552 20.0882 671.668 22.5264 672.99 25.4886C673.537 26.6279 674.152 27.9723 674.836 29.5218L676.681 33.6917C683.198 48.2295 686.958 55.3844 687.961 55.1566C688.69 55.0198 689.738 48.7764 691.105 36.4261L691.515 32.8714L691.925 29.4534C692.244 26.8558 692.495 24.7594 692.677 23.1644C693.224 18.9261 693.68 16.5335 694.045 15.9866C694.91 14.6195 698.009 13.9814 703.341 14.0726Z" fill="white"/>
<path d="M531.691 86.8074C531.099 82.2501 531.395 79.5613 532.58 78.741C533.993 77.7384 536.932 77.4649 541.398 77.9207C545.363 78.2852 548.302 78.8777 550.216 79.698C551.629 80.336 552.86 83.0248 553.908 87.7644C554.865 92.0483 555.161 95.0561 554.797 96.7878C554.432 98.5196 551.447 102.302 545.841 108.135C539.963 114.242 535.998 117.205 533.947 117.022C532.489 116.885 530.438 116.065 527.795 114.561C524.924 112.921 523.397 111.485 523.215 110.255C523.123 109.389 523.579 108.181 524.582 106.632C525.311 105.538 526.496 104.057 528.136 102.188C531.6 98.2234 533.263 95.8992 533.127 95.2156C533.127 94.9877 533.058 94.5548 532.922 93.9167L532.716 92.9597L532.511 91.866C532.147 89.9519 531.873 88.2657 531.691 86.8074Z" fill="white"/>
<path d="M452.734 8.60431C458.339 4.5939 461.985 2.70262 463.671 2.93049C464.264 2.97606 465.266 4.2521 466.679 6.75861C467.545 8.35366 468.935 11.1108 470.849 15.0301C474.632 22.8686 476.865 26.7423 477.548 26.6512C478.05 26.6056 479.143 25.4207 480.829 23.0965C481.468 22.2306 482.288 21.0685 483.29 19.6102L484.658 17.6278L486.025 15.577C490.992 8.2853 494.091 4.57111 495.322 4.43439C497.053 4.20653 500.563 7.12319 505.849 13.1844C510.953 19.1089 513.414 22.7319 513.232 24.0535C512.958 25.922 508.287 31.3908 499.218 40.4598C497.897 41.7814 496.21 43.4448 494.16 45.45L492.997 46.6121L491.835 47.7059C490.969 48.5718 490.286 49.2554 489.785 49.7567C486.868 52.6278 485.341 54.2456 485.204 54.6102C484.977 55.1115 485.022 57.4129 485.341 61.5145C485.432 62.9272 485.592 64.9552 485.82 67.5985L486.093 71.0164L486.435 74.5028C487.438 86.9897 487.529 93.894 486.708 95.2156C485.66 96.7651 480.488 96.4689 471.191 94.327C461.985 92.185 457.245 90.3621 456.972 88.8582C456.835 88.2658 457.063 86.0327 457.656 82.159C458.02 79.5613 458.704 75.437 459.706 69.786C461.757 58.0737 462.714 51.8986 462.578 51.2606C462.441 50.577 461.256 48.5034 459.023 45.0399C458.339 44.0373 457.223 42.3738 455.673 40.0496L453.896 37.2469L451.982 34.3758C445.465 24.3498 442.525 18.6531 443.163 17.286C444.029 15.463 447.219 12.5692 452.734 8.60431Z" fill="white"/>
<path d="M386.149 31.6405C381.637 31.3215 379.062 31.5037 378.424 32.1873C377.786 32.8709 377.353 35.3774 377.125 39.7069C376.852 43.9907 377.057 46.2694 377.741 46.5428C378.06 46.6795 379.062 46.7935 380.748 46.8846C382.48 47.0213 384.28 47.0669 386.149 47.0213C391.207 46.9757 394.033 46.5428 394.625 45.7225C395.218 44.8566 395.354 42.8058 395.035 39.5702C394.762 36.5168 394.306 34.466 393.668 33.4178C393.167 32.5519 390.66 31.9595 386.149 31.6405ZM360.104 96.2401C354.179 93.8703 350.693 91.7511 349.645 89.8827C348.642 88.0597 349.713 75.5728 352.858 52.4217C356.048 29.134 358.486 16.7153 360.172 15.1659C362.542 12.8872 370.745 11.52 384.782 11.0643C398.636 10.6086 406.543 11.2466 408.502 12.9784C410.781 15.0747 413.675 19.4725 417.184 26.1717C421.103 33.5545 422.858 38.8182 422.448 41.9627C422.037 44.8794 419.257 49.3683 414.108 55.4295C412.33 57.5259 410.416 59.645 408.366 61.7869C407.545 62.6073 406.793 63.3592 406.11 64.0428C405.517 64.6353 405.039 65.091 404.674 65.41C403.808 66.1847 405.403 70.9243 409.459 79.6287L410.621 82.0897L411.784 84.5506C412.649 86.4191 413.333 87.9002 413.834 88.994C415.156 92.0929 415.794 94.007 415.748 94.7362C415.52 96.7869 412.741 98.9972 407.409 101.367C402.213 103.691 398.545 104.58 396.403 104.033C395.628 103.805 394.397 102.278 392.711 99.453C392.028 98.3136 391.207 96.8781 390.25 95.1463L388.951 92.6854L387.653 90.2244C383.004 81.3833 380.11 76.826 378.971 76.5526C377.695 76.3247 376.351 79.492 374.938 86.0545L374.528 87.9686L374.117 89.8827C373.844 91.341 373.571 92.5259 373.297 93.4373C372.659 95.8983 371.998 97.4022 371.315 97.9491C369.856 99.1795 366.119 98.6099 360.104 96.2401Z" fill="white"/>
<path d="M292.36 31.6405C287.848 31.3215 285.273 31.5037 284.635 32.1873C283.997 32.8709 283.564 35.3774 283.336 39.7069C283.063 43.9907 283.268 46.2694 283.951 46.5428C284.27 46.6795 285.273 46.7935 286.959 46.8846C288.691 47.0213 290.491 47.0669 292.36 47.0213C297.418 46.9757 300.244 46.5428 300.836 45.7225C301.429 44.8566 301.565 42.8058 301.246 39.5702C300.973 36.5168 300.517 34.466 299.879 33.4178C299.378 32.5519 296.871 31.9595 292.36 31.6405ZM266.315 96.2401C260.39 93.8703 256.904 91.7511 255.856 89.8827C254.853 88.0597 255.924 75.5728 259.069 52.4217C262.259 29.134 264.697 16.7153 266.383 15.1659C268.753 12.8872 276.956 11.52 290.992 11.0643C304.847 10.6086 312.754 11.2466 314.713 12.9784C316.992 15.0747 319.886 19.4725 323.395 26.1717C327.314 33.5545 329.069 38.8182 328.659 41.9627C328.248 44.8794 325.468 49.3683 320.319 55.4295C318.541 57.5259 316.627 59.645 314.576 61.7869C313.756 62.6073 313.004 63.3592 312.321 64.0428C311.728 64.6353 311.25 65.091 310.885 65.41C310.019 66.1847 311.614 70.9243 315.67 79.6287L316.832 82.0897L317.994 84.5506C318.86 86.4191 319.544 87.9002 320.045 88.994C321.367 92.0929 322.005 94.007 321.959 94.7362C321.731 96.7869 318.951 98.9972 313.619 101.367C308.424 103.691 304.756 104.58 302.614 104.033C301.839 103.805 300.608 102.278 298.922 99.453C298.239 98.3136 297.418 96.8781 296.461 95.1463L295.162 92.6854L293.864 90.2244C289.215 81.3833 286.321 76.826 285.182 76.5526C283.906 76.3247 282.561 79.492 281.149 86.0545L280.739 87.9686L280.328 89.8827C280.055 91.341 279.782 92.5259 279.508 93.4373C278.87 95.8983 278.209 97.4022 277.526 97.9491C276.067 99.1795 272.33 98.6099 266.315 96.2401Z" fill="white"/>
<path d="M199.394 60.4876C203.313 57.9355 205.432 55.9303 205.751 54.472C206.116 52.6035 205.819 48.2969 204.862 41.5521C203.814 34.306 202.606 30.5007 201.239 30.1361C199.28 29.5892 196.409 30.7741 192.626 33.6908C188.843 36.6074 186.815 39.1139 186.542 41.2103C186.269 43.5345 186.702 47.5677 187.841 53.3099C189.026 59.3711 190.211 62.6979 191.396 63.2904C192.763 63.974 195.429 63.0397 199.394 60.4876ZM203.358 1.35677C210.832 2.13151 215.8 3.36198 218.261 5.04818C220.767 6.77995 224.276 13.9805 228.788 26.6497C233.209 38.9544 235.373 47.0664 235.282 50.9857C235.191 54.7682 232.229 62.5156 226.396 74.2279C220.243 86.5781 215.572 93.0951 212.382 93.7786C208.645 94.599 201.057 93.5964 189.618 90.7708C177.86 87.8086 171.024 84.9831 169.11 82.2943C167.105 79.4232 165.009 71.4707 162.821 58.4368C160.679 45.3118 160.11 37.0404 161.112 33.6224C162.206 29.9766 166.285 23.8014 173.349 15.097C180.458 6.25586 185.243 1.63021 187.704 1.22005C191.259 0.582031 196.477 0.627604 203.358 1.35677Z" fill="white"/>
<path d="M117.498 34.3756C126.658 36.5631 131.717 38.2949 132.674 39.5709C134.132 41.5761 135.818 47.7512 137.732 58.0963C139.646 68.3958 140.171 74.3886 139.305 76.0748C138.12 78.4446 132.332 82.2271 121.941 87.4225C111.551 92.5722 104.624 95.1015 101.16 95.0104C97.4688 94.8736 91.4076 91.6152 82.9766 85.235C74.7734 79.037 70.6719 75.0038 70.6719 73.1354C70.6719 71.5403 72.1302 68.6692 75.0469 64.5221C77.9635 60.4205 80.0827 58.1419 81.4043 57.6861C82.4069 57.3216 84.7539 58.9166 88.4453 62.4713L89.4707 63.4967L90.4961 64.5221C91.362 65.3424 92 65.9576 92.4102 66.3678C93.7318 67.5982 94.6204 68.2818 95.0762 68.4186C96.7168 68.8287 99.7018 68.7376 104.031 68.1451C108.452 67.5982 110.844 66.9146 111.209 66.0943C111.756 65.0006 111.801 63.3372 111.346 61.1041C110.89 58.9166 110.229 57.5494 109.363 57.0025C108.908 56.7291 107.016 55.9771 103.689 54.7467L102.527 54.3365L101.297 53.858C100.203 53.4934 99.3372 53.1744 98.6992 52.901C96.5573 52.1262 94.6888 51.4426 93.0938 50.8502C83.1589 47.0221 77.5762 44.2877 76.3457 42.6471C75.89 42.0546 75.457 39.2063 75.0469 34.1021C74.5911 28.9068 74.5456 25.4661 74.9102 23.7799C75.3203 21.957 77.3711 18.2883 81.0625 12.774C84.7995 7.16855 87.4655 3.84173 89.0605 2.79355C90.929 1.56309 96.6712 1.47194 106.287 2.52012C109.751 2.8847 113.191 3.34043 116.609 3.8873C119.708 4.43418 121.645 4.84434 122.42 5.11777C123.969 5.61908 125.245 8.46738 126.248 13.6627C127.251 18.9036 126.909 21.524 125.223 21.524C124.63 21.524 123.104 21.4557 120.643 21.3189L119.07 21.2506L117.361 21.1822L113.875 21.0455C107.951 20.8176 104.76 20.9771 104.305 21.524C103.986 21.8886 103.598 22.4811 103.143 23.3014C102.596 24.2584 102.163 25.1926 101.844 26.1041C100.932 28.6106 101.046 30.1373 102.186 30.6842C102.732 30.912 104.578 31.3906 107.723 32.1197C108.27 32.2564 108.999 32.4387 109.91 32.6666L112.371 33.2135C114.422 33.6692 116.131 34.0566 117.498 34.3756Z" fill="white"/>
</svg>
