<svg width="257" height="107" viewBox="0 0 257 107" fill="none" xmlns="http://www.w3.org/2000/svg">
<rect width="257" height="107" fill="#02B0ED"/>
<path d="M218.642 66.9843C219.923 67.1567 220.631 67.0767 220.767 66.7441C220.902 66.4239 220.902 65.5495 220.767 64.1208C220.644 62.7291 220.514 61.9655 220.379 61.83C220.219 61.6699 219.757 61.6637 218.993 61.8115C218.23 61.9593 217.756 62.1317 217.571 62.3288C217.349 62.5874 217.103 63.234 216.832 64.2686C216.573 65.3031 216.487 65.9682 216.573 66.2638C216.672 66.584 217.362 66.8242 218.642 66.9843ZM219.529 54.976C222.781 55.1977 224.782 55.7088 225.533 56.5094C226.309 57.3469 227.165 61.1711 228.101 67.9819C229.037 74.7681 229.247 78.4692 228.729 79.085C228.212 79.7008 226.987 80.0272 225.053 80.0641C224.326 80.0764 223.649 80.0395 223.021 79.9533C222.405 79.8794 222.048 79.7931 221.949 79.6946C221.703 79.4483 221.426 78.2783 221.118 76.1845L221.044 75.5933L220.952 75.0206C220.89 74.6019 220.841 74.2632 220.804 74.0045C220.681 73.3271 220.57 72.9392 220.471 72.8407C220.287 72.6436 219.658 72.5389 218.587 72.5266C217.565 72.5266 216.906 72.5943 216.61 72.7298C216.462 72.7914 216.247 73.167 215.964 73.8567C215.865 74.1154 215.736 74.4602 215.576 74.8913L215.372 75.464L215.151 76.0552C214.399 78.112 213.833 79.1342 213.451 79.1219C213.242 79.1096 213.032 79.0973 212.823 79.085C212.564 79.0603 212.306 79.0357 212.047 79.0111C211.407 78.9495 210.834 78.8633 210.329 78.7524C208.925 78.4692 208.118 78.0689 207.909 77.5516C207.613 76.8496 208.217 73.0808 209.719 66.2453C211.259 59.2867 212.417 55.6473 213.192 55.327C214.326 54.8713 216.438 54.7543 219.529 54.976Z" fill="white"/>
<path d="M198.298 64.101C196.71 66.6258 195.995 68.0914 196.155 68.4978C196.242 68.7195 196.636 69.243 197.338 70.0682C197.559 70.3391 197.898 70.7394 198.354 71.269L198.908 71.9156L199.481 72.5807C201.451 74.8961 202.381 76.2632 202.27 76.682C202.16 77.15 201.304 77.8705 199.702 78.8434C198.052 79.8534 196.944 80.2721 196.377 80.0997C196.106 80.0258 195.65 79.5763 195.01 78.7511C194.764 78.4309 194.468 78.0244 194.123 77.5318L193.643 76.8667L193.181 76.2016C192.393 75.0808 191.82 74.3111 191.463 73.8923C190.921 73.2642 190.588 73.0548 190.465 73.2642C190.244 73.6214 190.09 74.6251 190.003 76.2755L189.948 77.1992C189.936 77.5687 189.923 77.852 189.911 78.049C189.862 78.6279 189.806 79.0036 189.745 79.176C189.683 79.3607 189.351 79.4777 188.747 79.527C188.181 79.5763 187.516 79.5516 186.752 79.4531C184.868 79.2314 183.685 78.8311 183.205 78.2523C182.762 77.7104 182.854 73.8554 183.482 66.6874C184.098 59.6918 184.554 55.9538 184.849 55.4735C185.12 55.0301 186.118 54.8638 187.842 54.9747C189.529 55.0855 190.471 55.3257 190.669 55.6952C190.718 55.7814 190.73 56.157 190.705 56.8221C190.705 57.0191 190.693 57.3332 190.669 57.7643L190.632 58.3L190.613 58.8173C190.527 60.6278 190.619 61.4345 190.89 61.2374C191.038 61.1389 191.358 60.7694 191.851 60.129C191.937 60.0181 192.048 59.8703 192.183 59.6856L192.553 59.2053C192.861 58.7988 193.126 58.454 193.347 58.1707C194.764 56.3972 195.724 55.5474 196.229 55.6213C196.697 55.6828 197.609 56.2555 198.963 57.3394C200.368 58.4848 201.02 59.2853 200.922 59.741C200.885 59.9504 200.589 60.4985 200.035 61.3852C199.863 61.6562 199.585 62.0873 199.204 62.6784L198.76 63.3805L198.298 64.101Z" fill="white"/>
<path d="M157.944 69.0152C158.757 61.8349 159.293 58.0538 159.551 57.672C159.81 57.2902 160.722 57.1054 162.286 57.1178C163.838 57.1301 164.693 57.2902 164.854 57.5981C164.915 57.7213 164.946 58.1215 164.946 58.7989C164.958 59.0576 164.958 59.3963 164.946 59.815V60.3692V60.9235C164.921 62.9187 164.983 63.9964 165.131 64.1565C165.352 64.3658 166.184 64.4582 167.625 64.4336C169.078 64.409 169.891 64.2919 170.063 64.0826C170.15 63.984 170.26 63.6146 170.396 62.9741C170.47 62.58 170.593 61.9026 170.765 60.9419C171.11 58.9837 171.338 57.9429 171.449 57.8198C171.658 57.5858 172.545 57.5119 174.109 57.5981C175.698 57.6843 176.603 57.8998 176.825 58.2447C177.108 58.6881 177.299 62.6601 177.398 70.1606C177.508 77.6981 177.391 81.6024 177.047 81.8733C176.702 82.1443 175.778 82.2859 174.275 82.2982C172.822 82.3105 171.979 82.2182 171.745 82.0211C171.609 81.9103 171.387 80.1737 171.079 76.8114C170.932 75.1733 170.815 74.0094 170.728 73.3197C170.593 72.2359 170.47 71.6509 170.359 71.5647C170.076 71.3183 169.207 71.1829 167.754 71.1582C166.264 71.1459 165.414 71.2999 165.205 71.6201C165.106 71.7802 165.001 72.396 164.891 73.4675C164.854 73.8863 164.804 74.422 164.743 75.0748L164.669 75.9431L164.595 76.8483C164.324 80.0382 164.115 81.6886 163.967 81.7994C163.856 81.8979 163.468 81.9657 162.803 82.0026C162.101 82.0396 161.362 82.0334 160.586 81.9842C158.505 81.8487 157.335 81.4792 157.076 80.8757C156.817 80.2599 157.107 76.3064 157.944 69.0152Z" fill="white"/>
<path d="M144.425 61.0166C145.115 59.9451 145.565 59.3416 145.774 59.2061C146.168 58.9721 147.012 58.812 148.305 58.7258C149.66 58.6272 150.528 58.7073 150.91 58.9659C151.39 59.2985 151.686 62.9318 151.797 69.8658C151.92 76.7875 151.784 80.3715 151.39 80.6178C151.033 80.8641 150.165 80.9873 148.785 80.9873C147.406 80.9873 146.593 80.8641 146.347 80.6178C146.248 80.5193 146.137 80.0759 146.014 79.2877C145.965 79.0044 145.91 78.6164 145.848 78.1238L145.756 77.4772L145.663 76.8121C145.343 74.5213 145.029 73.4005 144.721 73.4498C144.413 73.4867 143.385 74.5952 141.636 76.7752L141.137 77.4033L140.657 77.9945C140.299 78.4502 140.004 78.8135 139.77 79.0844C139.179 79.7865 138.809 80.1621 138.661 80.2114C138.477 80.273 138.015 80.2668 137.276 80.1929C136.5 80.119 135.706 79.9958 134.893 79.8234C132.688 79.3431 131.475 78.7765 131.253 78.1238C130.995 77.3232 131.253 73.5114 132.029 66.6882C132.817 59.8158 133.446 56.2625 133.914 56.0285C134.382 55.7945 135.576 55.8315 137.498 56.1394C139.394 56.4473 140.54 56.7613 140.934 57.0816C141.155 57.254 141.149 57.993 140.915 59.2985C140.755 60.1483 140.435 61.5215 139.955 63.4182L139.696 64.5082C139.585 64.9147 139.493 65.2657 139.419 65.5613C139.234 66.3125 139.099 66.9222 139.012 67.3902C138.766 68.5849 138.754 69.1822 138.975 69.1822C139.234 69.1822 140.343 67.5934 142.301 64.4159L142.855 63.5106L143.409 62.6238C143.816 61.9711 144.154 61.4353 144.425 61.0166Z" fill="white"/>
<path d="M125.62 63.7317C125.657 65.8009 125.497 66.9832 125.14 67.2788C125.041 67.3527 124.659 67.4081 123.994 67.4451C123.748 67.4574 123.415 67.4697 122.997 67.482L122.442 67.5005L121.87 67.519C119.899 67.5805 118.889 67.7345 118.84 67.9808C118.815 68.0793 118.821 68.8737 118.858 70.364C118.871 70.5734 118.883 70.9305 118.895 71.4355V72.0267L118.914 72.6179C118.938 73.6032 118.957 74.4591 118.969 75.1858C119.055 79.8167 118.988 82.2984 118.766 82.6309C118.63 82.828 118.156 82.9635 117.343 83.0374C116.592 83.1236 115.73 83.1359 114.757 83.0743C112.368 82.9388 111.099 82.5755 110.951 81.9843C110.89 81.7134 110.921 80.7219 111.044 79.01C111.093 78.3818 111.161 77.5382 111.247 76.479L111.358 75.0749L111.469 73.6524C111.887 68.6767 111.967 66.1334 111.709 66.0225C111.561 65.961 111.148 65.8809 110.471 65.7824C110.249 65.7577 109.917 65.7208 109.473 65.6715L108.938 65.5976L108.402 65.5422C106.493 65.2959 105.464 65.0557 105.317 64.8217C105.07 64.4522 105.009 63.3191 105.132 61.4224C105.267 59.4395 105.557 58.3249 106 58.0786C106.616 57.7337 109.88 57.9123 115.792 58.6144C121.629 59.3164 124.721 59.8398 125.066 60.1847C125.386 60.5049 125.571 61.6872 125.62 63.7317Z" fill="white"/>
<path d="M90.1893 67.8153C91.6057 67.8276 92.4801 67.7167 92.8126 67.4827C93.0959 67.2734 93.2622 66.7499 93.3114 65.9124C93.3607 65.1242 93.3053 64.5453 93.1452 64.1758C93.022 63.8679 92.4 63.6586 91.2793 63.5477C90.2078 63.4492 89.5181 63.4861 89.2102 63.6586C88.9022 63.831 88.5451 64.3852 88.1386 65.3212C87.7199 66.2819 87.5906 66.9347 87.7507 67.2795C87.8985 67.6244 88.7113 67.803 90.1893 67.8153ZM80.9152 69.4595C81.2847 62.4146 81.8081 58.5658 82.4855 57.9131C82.8427 57.5805 83.8834 57.445 85.6077 57.5066C87.1965 57.5559 89.0254 57.7529 91.0945 58.0978C93.1883 58.4427 94.9741 58.8491 96.4521 59.3171C98.0901 59.8344 99.0077 60.327 99.2047 60.795C99.5742 61.6818 99.605 63.6155 99.2971 66.596C98.9769 69.712 98.4473 71.5779 97.7083 72.1937C97.4743 72.3907 96.8708 72.5755 95.8978 72.7479C95.516 72.8095 95.0357 72.8772 94.4569 72.9511L93.6625 73.062L92.8681 73.1543C90.0846 73.5115 88.6005 73.8564 88.4158 74.1889C88.3049 74.386 88.1941 74.9279 88.0832 75.8146C88.0463 76.1349 88.0032 76.5598 87.9539 77.0894L87.8985 77.7729L87.8246 78.4749C87.6029 80.9259 87.3566 82.2314 87.0856 82.3915C86.8886 82.5146 86.4944 82.5947 85.9033 82.6317C85.2874 82.6809 84.6532 82.6748 84.0004 82.6132C82.2638 82.4408 81.2477 81.9789 80.9521 81.2276C80.5703 80.2669 80.558 76.3442 80.9152 69.4595Z" fill="white"/>
<path d="M64.7049 66.9843C65.9858 67.1567 66.694 67.0767 66.8294 66.7441C66.9649 66.4239 66.9649 65.5495 66.8294 64.1208C66.7063 62.7291 66.5769 61.9655 66.4415 61.83C66.2814 61.6699 65.8195 61.6637 65.0559 61.8115C64.2923 61.9593 63.8181 62.1317 63.6334 62.3288C63.4117 62.5874 63.1654 63.234 62.8944 64.2686C62.6358 65.3031 62.5496 65.9682 62.6358 66.2638C62.7343 66.584 63.424 66.8242 64.7049 66.9843ZM65.5917 54.976C68.8431 55.1977 70.8445 55.7088 71.5958 56.5094C72.3717 57.3469 73.2277 61.1711 74.1637 67.9819C75.0998 74.7681 75.3091 78.4692 74.7918 79.085C74.2746 79.7008 73.0491 80.0272 71.1155 80.0641C70.3888 80.0764 69.7114 80.0395 69.0833 79.9533C68.4675 79.8794 68.1103 79.7931 68.0118 79.6946C67.7655 79.4483 67.4883 78.2783 67.1804 76.1845L67.1065 75.5933L67.0142 75.0206C66.9526 74.6019 66.9033 74.2632 66.8664 74.0045C66.7432 73.3271 66.6324 72.9392 66.5338 72.8407C66.3491 72.6436 65.721 72.5389 64.6495 72.5266C63.6272 72.5266 62.9683 72.5943 62.6727 72.7298C62.5249 72.7914 62.3094 73.167 62.0261 73.8567C61.9276 74.1154 61.7983 74.4602 61.6382 74.8913L61.4349 75.464L61.2132 76.0552C60.462 78.112 59.8954 79.1342 59.5136 79.1219C59.3042 79.1096 59.0949 79.0973 58.8855 79.085C58.6268 79.0603 58.3682 79.0357 58.1096 79.0111C57.4691 78.9495 56.8964 78.8633 56.3915 78.7524C54.9874 78.4692 54.1807 78.0689 53.9713 77.5516C53.6757 76.8496 54.2792 73.0808 55.7818 66.2453C57.3213 59.2867 58.479 55.6473 59.255 55.327C60.3881 54.8713 62.5003 54.7543 65.5917 54.976Z" fill="white"/>
<path d="M44.3687 64.101C42.7799 66.6258 42.0656 68.0914 42.2257 68.4978C42.3119 68.7195 42.706 69.243 43.408 70.0682C43.6297 70.3391 43.9684 70.7394 44.4241 71.269L44.9783 71.9156L45.5511 72.5807C47.5216 74.8961 48.4515 76.2632 48.3407 76.682C48.2298 77.15 47.3738 77.8705 45.7727 78.8434C44.1224 79.8534 43.0139 80.2721 42.4474 80.0997C42.1764 80.0258 41.7207 79.5763 41.0803 78.7511C40.834 78.4309 40.5384 78.0244 40.1935 77.5318L39.7132 76.8667L39.2513 76.2016C38.4631 75.0808 37.8904 74.3111 37.5332 73.8923C36.9913 73.2642 36.6588 73.0548 36.5356 73.2642C36.3139 73.6214 36.16 74.6251 36.0737 76.2755L36.0183 77.1992C36.006 77.5687 35.9937 77.852 35.9814 78.049C35.9321 78.6279 35.8767 79.0036 35.8151 79.176C35.7535 79.3607 35.421 79.4777 34.8175 79.527C34.2509 79.5763 33.5859 79.5516 32.8223 79.4531C30.9379 79.2314 29.7555 78.8311 29.2752 78.2523C28.8318 77.7104 28.9242 73.8554 29.5523 66.6874C30.1681 59.6918 30.6238 55.9538 30.9194 55.4735C31.1904 55.0301 32.188 54.8638 33.9122 54.9747C35.5996 55.0855 36.5418 55.3257 36.7388 55.6952C36.7881 55.7814 36.8004 56.157 36.7758 56.8221C36.7758 57.0191 36.7634 57.3332 36.7388 57.7643L36.7019 58.3L36.6834 58.8173C36.5972 60.6278 36.6896 61.4345 36.9605 61.2374C37.1083 61.1389 37.4285 60.7694 37.9212 60.129C38.0074 60.0181 38.1182 59.8703 38.2537 59.6856L38.6232 59.2053C38.9311 58.7988 39.1959 58.454 39.4176 58.1707C40.834 56.3972 41.7946 55.5474 42.2996 55.6213C42.7676 55.6828 43.679 56.2555 45.0338 57.3394C46.4378 58.4848 47.0906 59.2853 46.992 59.741C46.9551 59.9504 46.6595 60.4985 46.1053 61.3852C45.9329 61.6562 45.6557 62.0873 45.2739 62.6784L44.8306 63.3805L44.3687 64.101Z" fill="white"/>
<path d="M191.397 36.5517C192.221 36.0153 192.667 35.5938 192.734 35.2872C192.81 34.8945 192.748 33.9893 192.547 32.5715C192.327 31.0484 192.073 30.2486 191.785 30.1719C191.373 30.057 190.77 30.306 189.975 30.9191C189.18 31.5322 188.753 32.059 188.696 32.4997C188.639 32.9882 188.73 33.836 188.969 35.043C189.218 36.317 189.467 37.0163 189.716 37.1408C190.004 37.2845 190.564 37.0881 191.397 36.5517ZM192.231 24.1226C193.802 24.2855 194.846 24.5441 195.363 24.8985C195.89 25.2625 196.628 26.7761 197.576 29.4391C198.505 32.0255 198.96 33.7306 198.941 34.5544C198.922 35.3495 198.299 36.978 197.073 39.4399C195.78 42.0358 194.798 43.4057 194.127 43.5494C193.342 43.7218 191.747 43.511 189.343 42.9171C186.871 42.2945 185.434 41.7006 185.032 41.1354C184.61 40.5319 184.17 38.8603 183.71 36.1206C183.26 33.3618 183.14 31.6232 183.351 30.9047C183.581 30.1384 184.438 28.8404 185.923 27.0108C187.417 25.1524 188.423 24.1801 188.94 24.0939C189.687 23.9598 190.784 23.9693 192.231 24.1226Z" fill="white"/>
<path d="M176.715 26.7953C177.816 26.8144 178.496 26.9485 178.755 27.1976C179.052 27.485 179.057 30.3731 178.769 35.862C178.482 41.3893 178.137 44.3445 177.735 44.7276C177.342 45.1108 176.499 45.3311 175.206 45.3886C174.037 45.4461 173.271 45.3838 172.907 45.2018C172.715 45.106 172.074 44.1529 170.982 42.3424L170.665 41.8251L170.349 41.3078C170.119 40.9247 169.923 40.6086 169.76 40.3595C169.358 39.7177 169.075 39.3201 168.912 39.1669C168.654 38.9082 168.304 39.7799 167.863 41.782L167.72 42.3711L167.59 42.9603C167.495 43.4105 167.413 43.7697 167.346 44.0379C167.155 44.7755 166.987 45.1922 166.843 45.288C166.498 45.5275 165.799 45.5898 164.745 45.4748C163.673 45.3599 163.031 45.1395 162.82 44.8139C162.581 44.469 162.648 41.5138 163.021 35.9482C163.395 30.3444 163.754 27.3269 164.099 26.8958C164.367 26.5606 165.129 26.2923 166.383 26.0912C167.581 25.89 168.333 25.8661 168.639 26.0193C168.802 26.096 169.133 26.642 169.631 27.6574C169.822 28.0597 170.057 28.5722 170.335 29.1949C170.45 29.4343 170.579 29.7169 170.723 30.0426L171.111 30.9191C172.481 33.9749 173.271 35.4789 173.482 35.431C173.635 35.4022 173.855 34.0899 174.143 31.4939L174.229 30.7467L174.315 30.0283C174.382 29.4822 174.435 29.0416 174.473 28.7063C174.588 27.8155 174.684 27.3125 174.761 27.1976C174.943 26.9102 175.594 26.7761 176.715 26.7953Z" fill="white"/>
<path d="M140.628 42.0828C140.503 41.1249 140.566 40.5597 140.815 40.3873C141.112 40.1765 141.73 40.119 142.668 40.2148C143.502 40.2915 144.12 40.416 144.522 40.5884C144.819 40.7225 145.077 41.2877 145.298 42.2839C145.499 43.1844 145.561 43.8166 145.485 44.1806C145.408 44.5447 144.78 45.3397 143.602 46.5659C142.367 47.8495 141.533 48.4721 141.102 48.4338C140.796 48.4051 140.364 48.2327 139.809 47.9166C139.205 47.5717 138.884 47.27 138.846 47.0113C138.827 46.8293 138.923 46.5755 139.134 46.2498C139.287 46.0199 139.536 45.7085 139.881 45.3158C140.609 44.4824 140.958 43.9938 140.93 43.8502C140.93 43.8023 140.915 43.7113 140.887 43.5771L140.843 43.376L140.8 43.1461C140.724 42.7437 140.666 42.3893 140.628 42.0828Z" fill="white"/>
<path d="M124.03 25.6457C125.208 24.8027 125.974 24.4052 126.329 24.4531C126.453 24.4627 126.664 24.7309 126.961 25.2577C127.143 25.593 127.435 26.1726 127.837 26.9964C128.632 28.644 129.102 29.4582 129.245 29.4391C129.351 29.4295 129.581 29.1804 129.935 28.6919C130.069 28.5099 130.242 28.2656 130.452 27.9591L130.74 27.5424L131.027 27.1113C132.071 25.5786 132.723 24.7979 132.981 24.7692C133.345 24.7213 134.083 25.3344 135.194 26.6084C136.267 27.8537 136.784 28.6153 136.746 28.8931C136.689 29.2858 135.707 30.4353 133.8 32.3416C133.523 32.6194 133.168 32.969 132.737 33.3905L132.493 33.6348L132.249 33.8647C132.067 34.0467 131.923 34.1904 131.818 34.2958C131.204 34.8993 130.884 35.2393 130.855 35.316C130.807 35.4213 130.816 35.9051 130.884 36.7672C130.903 37.0642 130.936 37.4905 130.984 38.0461L131.042 38.7645L131.113 39.4973C131.324 42.122 131.343 43.5733 131.171 43.8511C130.951 44.1768 129.863 44.1145 127.909 43.6643C125.974 43.2141 124.978 42.8309 124.92 42.5148C124.892 42.3902 124.94 41.9209 125.064 41.1066C125.141 40.5606 125.284 39.6937 125.495 38.5059C125.926 36.044 126.127 34.746 126.099 34.6119C126.07 34.4682 125.821 34.0323 125.352 33.3043C125.208 33.0936 124.973 32.7439 124.647 32.2554L124.274 31.6663L123.872 31.0628C122.502 28.9553 121.884 27.7579 122.018 27.4705C122.2 27.0874 122.87 26.4791 124.03 25.6457Z" fill="white"/>
<path d="M110.038 30.4878C109.09 30.4207 108.549 30.459 108.415 30.6027C108.281 30.7464 108.19 31.2733 108.142 32.1833C108.084 33.0838 108.127 33.5627 108.271 33.6202C108.338 33.6489 108.549 33.6729 108.903 33.692C109.267 33.7208 109.646 33.7304 110.038 33.7208C111.102 33.7112 111.696 33.6202 111.82 33.4478C111.945 33.2658 111.973 32.8347 111.906 32.1546C111.849 31.5128 111.753 31.0817 111.619 30.8614C111.514 30.6794 110.987 30.5548 110.038 30.4878ZM104.564 44.0664C103.319 43.5683 102.586 43.1228 102.365 42.7301C102.155 42.3469 102.38 39.7222 103.041 34.8559C103.711 29.9609 104.224 27.3506 104.578 27.0249C105.076 26.5459 106.801 26.2585 109.751 26.1627C112.663 26.067 114.325 26.2011 114.737 26.5651C115.216 27.0057 115.824 27.9301 116.562 29.3383C117.386 30.8901 117.755 31.9965 117.668 32.6575C117.582 33.2706 116.998 34.2141 115.915 35.4882C115.542 35.9288 115.139 36.3742 114.708 36.8245C114.536 36.9969 114.378 37.155 114.234 37.2986C114.11 37.4232 114.009 37.519 113.932 37.586C113.75 37.7489 114.086 38.7451 114.938 40.5747L115.183 41.092L115.427 41.6093C115.609 42.0021 115.753 42.3134 115.858 42.5433C116.136 43.1947 116.27 43.597 116.26 43.7503C116.212 44.1813 115.628 44.6459 114.507 45.1441C113.415 45.6326 112.644 45.8194 112.194 45.7044C112.031 45.6565 111.772 45.3356 111.418 44.7417C111.274 44.5022 111.102 44.2005 110.901 43.8365L110.628 43.3192L110.355 42.8019C109.378 40.9435 108.769 39.9856 108.53 39.9281C108.262 39.8803 107.979 40.546 107.682 41.9254L107.596 42.3278L107.51 42.7301C107.452 43.0366 107.395 43.2857 107.337 43.4773C107.203 43.9945 107.064 44.3107 106.92 44.4256C106.614 44.6843 105.828 44.5645 104.564 44.0664Z" fill="white"/>
<path d="M90.3197 30.4878C89.3714 30.4207 88.8301 30.459 88.696 30.6027C88.5619 30.7464 88.4709 31.2733 88.423 32.1833C88.3656 33.0838 88.4087 33.5627 88.5524 33.6202C88.6194 33.6489 88.8301 33.6729 89.1846 33.692C89.5486 33.7208 89.927 33.7304 90.3197 33.7208C91.383 33.7112 91.9769 33.6202 92.1015 33.4478C92.226 33.2658 92.2547 32.8347 92.1877 32.1546C92.1302 31.5128 92.0344 31.0817 91.9003 30.8614C91.7949 30.6794 91.2681 30.5548 90.3197 30.4878ZM84.8452 44.0664C83.5999 43.5683 82.8671 43.1228 82.6467 42.7301C82.436 42.3469 82.6611 39.7222 83.3221 34.8559C83.9926 29.9609 84.5051 27.3506 84.8595 27.0249C85.3577 26.5459 87.0819 26.2585 90.0323 26.1627C92.9444 26.067 94.6064 26.2011 95.0184 26.5651C95.4973 27.0057 96.1056 27.9301 96.8432 29.3383C97.667 30.8901 98.0358 31.9965 97.9496 32.6575C97.8634 33.2706 97.2791 34.2141 96.1966 35.4882C95.823 35.9288 95.4207 36.3742 94.9896 36.8245C94.8172 36.9969 94.6591 37.155 94.5154 37.2986C94.3909 37.4232 94.2903 37.519 94.2137 37.586C94.0317 37.7489 94.367 38.7451 95.2195 40.5747L95.4638 41.092L95.7081 41.6093C95.8901 42.0021 96.0338 42.3134 96.1391 42.5433C96.4169 43.1947 96.551 43.597 96.5415 43.7503C96.4936 44.1813 95.9092 44.6459 94.7884 45.1441C93.6964 45.6326 92.9253 45.8194 92.4751 45.7044C92.3122 45.6565 92.0536 45.3356 91.6991 44.7417C91.5554 44.5022 91.383 44.2005 91.1819 43.8365L90.9088 43.3192L90.6358 42.8019C89.6588 40.9435 89.0505 39.9856 88.811 39.9281C88.5428 39.8803 88.2602 40.546 87.9632 41.9254L87.877 42.3278L87.7908 42.7301C87.7333 43.0366 87.6758 43.2857 87.6184 43.4773C87.4843 43.9945 87.3454 44.3107 87.2017 44.4256C86.8951 44.6843 86.1096 44.5645 84.8452 44.0664Z" fill="white"/>
<path d="M70.7802 36.5517C71.604 36.0153 72.0494 35.5938 72.1165 35.2872C72.1931 34.8945 72.1309 33.9893 71.9297 32.5715C71.7094 31.0484 71.4555 30.2486 71.1681 30.1719C70.7562 30.057 70.1527 30.306 69.3577 30.9191C68.5626 31.5322 68.1363 32.059 68.0788 32.4997C68.0214 32.9882 68.1124 33.836 68.3518 35.043C68.6009 36.317 68.85 37.0163 69.099 37.1408C69.3864 37.2845 69.9468 37.0881 70.7802 36.5517ZM71.6136 24.1226C73.1846 24.2855 74.2287 24.5441 74.746 24.8985C75.2729 25.2625 76.0105 26.7761 76.9588 29.4391C77.888 32.0255 78.343 33.7306 78.3239 34.5544C78.3047 35.3495 77.682 36.978 76.4559 39.4399C75.1627 42.0358 74.1808 43.4057 73.5103 43.5494C72.7248 43.7218 71.1298 43.511 68.7254 42.9171C66.254 42.2945 64.8171 41.7006 64.4148 41.1354C63.9933 40.5319 63.5526 38.8603 63.0928 36.1206C62.6426 33.3618 62.5229 31.6232 62.7336 30.9047C62.9635 30.1384 63.8208 28.8404 65.3056 27.0108C66.8 25.1524 67.8058 24.1801 68.3231 24.0939C69.0703 23.9598 70.1671 23.9693 71.6136 24.1226Z" fill="white"/>
<path d="M53.5693 31.0628C55.4947 31.5226 56.558 31.8866 56.7591 32.1548C57.0657 32.5763 57.4201 33.8743 57.8224 36.0488C58.2248 38.2137 58.3349 39.4734 58.1529 39.8278C57.9039 40.3259 56.6873 41.121 54.5032 42.213C52.3192 43.2955 50.8631 43.8271 50.1351 43.808C49.3592 43.7792 48.0851 43.0943 46.313 41.7532C44.5887 40.4504 43.7266 39.6027 43.7266 39.2099C43.7266 38.8747 44.0331 38.2712 44.6462 37.3995C45.2592 36.5373 45.7047 36.0584 45.9825 35.9626C46.1932 35.8859 46.6866 36.2212 47.4625 36.9684L47.678 37.1839L47.8935 37.3995C48.0755 37.5719 48.2097 37.7012 48.2959 37.7874C48.5737 38.0461 48.7605 38.1897 48.8563 38.2185C49.2011 38.3047 49.8286 38.2855 50.7386 38.161C51.6678 38.0461 52.1707 37.9024 52.2473 37.7299C52.3623 37.5 52.3718 37.1504 52.2761 36.681C52.1803 36.2212 52.0414 35.9338 51.8594 35.8189C51.7636 35.7614 51.366 35.6033 50.6667 35.3447L50.4225 35.2585L50.1638 35.1579C49.9339 35.0813 49.7519 35.0142 49.6178 34.9567C49.1676 34.7939 48.7748 34.6502 48.4396 34.5257C46.3513 33.721 45.1778 33.1463 44.9192 32.8014C44.8234 32.6769 44.7324 32.0782 44.6462 31.0053C44.5504 29.9133 44.5408 29.19 44.6174 28.8356C44.7036 28.4524 45.1347 27.6813 45.9106 26.5222C46.6961 25.344 47.2565 24.6447 47.5918 24.4243C47.9845 24.1657 49.1915 24.1465 51.2128 24.3669C51.9408 24.4435 52.664 24.5393 53.3825 24.6542C54.0338 24.7692 54.441 24.8554 54.6038 24.9129C54.9295 25.0183 55.1977 25.617 55.4085 26.709C55.6192 27.8106 55.5474 28.3614 55.1929 28.3614C55.0684 28.3614 54.7475 28.347 54.2302 28.3183L53.8997 28.3039L53.5405 28.2896L52.8077 28.2608C51.5624 28.2129 50.8918 28.2465 50.7961 28.3614C50.729 28.4381 50.6476 28.5626 50.5518 28.735C50.4368 28.9362 50.3458 29.1325 50.2788 29.3241C50.0872 29.851 50.1111 30.1719 50.3506 30.2869C50.4656 30.3347 50.8535 30.4353 51.5145 30.5886C51.6295 30.6173 51.7827 30.6557 51.9743 30.7035L52.4916 30.8185C52.9227 30.9143 53.2819 30.9957 53.5693 31.0628Z" fill="white"/>
</svg>
